<?xml version="1.0" encoding="iso-8859-1"?>
<!-- Generator: Adobe Illustrator 19.1.1, SVG Export Plug-In . SVG Version: 6.00 Build 0)  -->
<svg version="1.1" id="Layer_1" xmlns="http://www.w3.org/2000/svg" xmlns:xlink="http://www.w3.org/1999/xlink" x="0px" y="0px"
	 viewBox="0 0 40 40" style="enable-background:new 0 0 40 40;" xml:space="preserve">
<line style="fill:#B08159;stroke:#704E34;stroke-miterlimit:10;" x1="36" y1="33" x2="7" y2="3"/>
<path style="fill:#C2E8FF;" d="M32.909,10.129c5.506,5.506,5.404,14.375,0,19.78c-5.404,5.404-14.274,5.506-19.78,0
	s-5.506-14.274,0-19.78S27.403,4.624,32.909,10.129z"/>
<g>
	<path style="fill:#BAE0BD;" d="M36.212,21.653c-0.406-0.21-0.827-0.427-1.206-0.68l-0.056-0.037l-0.063-0.021
		c-0.63-0.21-1.174-0.538-1.699-0.854c-0.15-0.077-0.272-0.161-0.404-0.249c-0.389-0.261-0.87-0.583-1.464-0.609
		c-0.085-0.021-0.171-0.032-0.257-0.032c-0.27,0-0.484,0.104-0.657,0.187c-0.068,0.033-0.14,0.068-0.22,0.095
		c-0.55,0.219-0.956,0.597-1.315,0.931c-0.434,0.403-0.809,0.752-1.286,0.752l0,0c-0.062,0-0.126-0.005-0.192-0.017
		c-0.22-0.044-0.357-0.193-0.621-0.497c-0.075-0.086-0.153-0.176-0.238-0.267c-0.058-0.245-0.133-0.473-0.209-0.7
		c-0.078-0.233-0.157-0.466-0.209-0.726l-0.01-0.051l-0.021-0.048c-0.121-0.281-0.21-0.562-0.299-0.837
		c-0.154-0.481-0.313-0.977-0.611-1.442c-0.102-0.244-0.283-0.426-0.432-0.574c-0.06-0.06-0.136-0.136-0.181-0.195
		c0.029-0.16,0.111-0.409,0.18-0.617l0.025-0.075l0.009-0.106c0-0.026,0.006-0.054,0.018-0.1c0.028-0.12,0.104-0.439-0.165-0.707
		c-0.124-0.124-0.259-0.172-0.365-0.19c-0.023-0.072-0.049-0.175-0.049-0.242c0-0.552,0.027-1.077,0.056-1.602
		c0.026-0.498,0.052-0.997,0.056-1.517c0.034-0.078,0.051-0.162,0.052-0.247c0-0.117-0.032-0.217-0.071-0.294
		c-0.071-0.3-0.324-0.509-0.644-0.509c-0.147,0-0.293,0.046-0.416,0.129c-0.151,0.055-0.263,0.11-0.373,0.166
		c-0.095,0.047-0.188,0.095-0.329,0.142l-0.016,0.005V9.99l-0.348-1.736c0.01-0.063-0.014-0.251-0.041-0.449
		c-0.038-0.282-0.087-0.633-0.002-0.803c0.087-0.22,0.21-0.364,0.396-0.477c0.164-0.006,0.328-0.009,0.493-0.009
		c3.587,0,6.971,1.409,9.528,3.967c2.978,2.977,4.36,7.063,3.818,11.254C36.321,21.709,36.267,21.682,36.212,21.653z"/>
	<path style="fill:#5E9C76;" d="M23.026,7.016L23.026,7.016c3.454,0,6.712,1.357,9.176,3.821c2.704,2.704,4.041,6.359,3.753,10.118
		c-0.233-0.126-0.461-0.256-0.671-0.396l-0.112-0.074l-0.127-0.042c-0.576-0.192-1.073-0.491-1.599-0.807l-0.034-0.02l-0.036-0.018
		c-0.098-0.049-0.201-0.122-0.313-0.197c-0.41-0.274-0.963-0.644-1.672-0.69c-0.109-0.023-0.218-0.035-0.328-0.035
		c-0.384,0-0.679,0.142-0.875,0.237c-0.05,0.024-0.102,0.052-0.161,0.071L30,18.99L29.974,19c-0.61,0.244-1.053,0.656-1.444,1.019
		c-0.412,0.383-0.678,0.618-0.945,0.618c-0.035,0-0.072-0.003-0.078-0.004c-0.067-0.013-0.148-0.096-0.358-0.337
		c-0.052-0.06-0.106-0.121-0.162-0.184c-0.059-0.223-0.127-0.427-0.189-0.613c-0.077-0.23-0.149-0.446-0.193-0.666l-0.02-0.102
		l-0.041-0.096c-0.108-0.252-0.193-0.515-0.282-0.794c-0.16-0.5-0.326-1.016-0.644-1.523c-0.135-0.301-0.342-0.514-0.504-0.676
		c0.034-0.112,0.076-0.239,0.111-0.346l0.054-0.137l0-0.16c0.112-0.471,0.012-0.865-0.297-1.174
		c-0.082-0.082-0.171-0.149-0.268-0.202c0.004-0.49,0.029-0.959,0.055-1.453c0.025-0.468,0.05-0.951,0.056-1.456
		c0.07-0.224,0.069-0.468-0.009-0.7c-0.012-0.034-0.024-0.067-0.038-0.098c-0.054-0.191-0.154-0.363-0.294-0.503
		c-0.217-0.218-0.509-0.338-0.823-0.338c-0.225,0-0.448,0.064-0.64,0.179c-0.043,0.017-0.083,0.033-0.121,0.049l-0.022-0.112
		l-0.191-0.953c-0.007-0.172-0.031-0.341-0.053-0.505c-0.023-0.168-0.061-0.448-0.05-0.512l0.021-0.043l0.017-0.044
		c0.014-0.037,0.035-0.076,0.078-0.117C22.81,7.017,22.918,7.016,23.026,7.016 M23.026,6.016c-0.21,0-0.42,0.005-0.63,0.014
		c-0.317,0.161-0.57,0.398-0.705,0.748c-0.224,0.45,0.001,1.124,0.001,1.574c0.112,0.562,0.225,1.124,0.337,1.686
		c-0.001,0.225,0.112,0.562,0.337,0.562c0.033,0.033,0.066,0.046,0.099,0.046c0.08,0,0.159-0.08,0.238-0.159
		c0.338-0.112,0.451-0.225,0.787-0.338c0.047-0.047,0.112-0.074,0.173-0.074c0.087,0,0.164,0.055,0.164,0.186
		c0,0,0.113,0.113,0.001,0.225c-0.001,1.124-0.112,2.135-0.113,3.259c0,0.225,0.112,0.562,0.225,0.674
		c0.112,0.112,0.225,0,0.337,0.112c0.113,0.113,0.001,0.225,0,0.449c-0.112,0.338-0.225,0.674-0.224,0.9
		c0.112,0.337,0.562,0.562,0.674,0.899c0.449,0.674,0.561,1.462,0.898,2.248c0.112,0.561,0.338,1.011,0.45,1.573
		c0.449,0.449,0.674,0.9,1.236,1.012c0.095,0.016,0.186,0.023,0.274,0.023c1.157,0,1.715-1.291,2.761-1.708
		c0.273-0.091,0.472-0.256,0.717-0.256c0.058,0,0.118,0.009,0.182,0.03c0.674,0.001,1.236,0.563,1.686,0.787
		c0.561,0.338,1.124,0.674,1.798,0.899c0.675,0.45,1.461,0.787,2.023,1.124c0.016-0.13,0.049-0.27,0.076-0.407
		c0.636-4.224-0.638-8.697-3.918-11.977C30.158,7.378,26.592,6.016,23.026,6.016L23.026,6.016z"/>
</g>
<g>
	<path style="fill:#BAE0BD;" d="M17.635,14.276c-0.27-0.169-0.62-0.519-0.759-0.658c-0.193-0.193-0.304-0.407-0.431-0.654
		c-0.187-0.362-0.397-0.771-0.884-1.096c-0.041-0.054-0.707-0.577-1.094-0.877l-0.27-0.21l-0.294,0.176
		c-0.146,0.087-0.28,0.188-0.404,0.283c-0.066,0.05-0.158,0.12-0.223,0.16c-0.014-0.017-0.029-0.038-0.049-0.067
		c-0.018-0.042-0.075-0.21-0.136-0.44c0.127-0.139,0.256-0.276,0.39-0.411c1.101-1.1,2.363-1.995,3.757-2.663
		c0.063,0.096,0.218,0.378,0.441,1.089l0.053,0.162c0.222,0.456,0.402,1.021,0.32,1.429c-0.01,0.526-0.01,1.173-0.112,1.687
		c-0.06,0.297-0.09,0.624-0.12,0.951c-0.026,0.291-0.052,0.582-0.104,0.846C17.687,14.063,17.66,14.175,17.635,14.276z"/>
	<path style="fill:#5E9C76;" d="M17.009,8.495c0.059,0.149,0.125,0.339,0.196,0.568l0.053,0.165l0.023,0.068l0.032,0.064
		c0.197,0.393,0.298,0.812,0.251,1.042L17.545,10.5v0.099c0,0.408,0,1.024-0.094,1.491c-0.066,0.332-0.097,0.672-0.127,1.002
		c-0.008,0.083-0.015,0.165-0.023,0.245c-0.029-0.028-0.053-0.053-0.073-0.072c-0.137-0.137-0.225-0.309-0.338-0.528
		c-0.185-0.36-0.437-0.849-0.985-1.238c-0.119-0.103-0.4-0.334-1.13-0.901L14.4,10.305C15.196,9.596,16.069,8.99,17.009,8.495
		 M17.26,7.259c-1.492,0.681-2.894,1.634-4.131,2.871c-0.203,0.203-0.394,0.414-0.583,0.626c0.078,0.359,0.181,0.686,0.266,0.856
		c0.154,0.23,0.294,0.316,0.435,0.316c0.271,0,0.544-0.319,0.914-0.541c0,0,1.011,0.787,1.124,0.899
		c0.675,0.45,0.674,1.124,1.236,1.686c0.337,0.337,0.899,0.899,1.349,0.899l0.112-0.112c0.112-0.112,0.112-0.337,0.225-0.674
		c0.112-0.562,0.113-1.237,0.225-1.798c0.113-0.562,0.113-1.237,0.113-1.686c0.112-0.562-0.112-1.236-0.338-1.686
		c-0.112-0.337-0.389-1.385-0.839-1.609C17.341,7.295,17.298,7.275,17.26,7.259L17.26,7.259z"/>
</g>
<g>
	<path style="fill:#BAE0BD;" d="M26.927,32.913c-0.106-0.084-0.245-0.189-0.385-0.294c-0.195-0.147-0.393-0.292-0.457-0.351
		l-0.052-0.048l-0.073-0.042c-0.22-0.11-0.468-0.248-0.715-0.385c-0.259-0.144-0.517-0.287-0.746-0.402
		c-0.282-0.122-0.561-0.21-0.845-0.299c-0.574-0.18-1.117-0.35-1.498-0.73c-0.108-0.108-0.212-0.221-0.315-0.333
		c-0.378-0.409-0.797-0.864-1.397-1.068l1.994-1.994c0.091-0.047,0.189-0.102,0.291-0.158c0.275-0.152,0.677-0.374,0.911-0.417
		c0.086,0.038,0.171,0.089,0.266,0.146c0.154,0.092,0.328,0.197,0.549,0.27l0.077,0.026h0.081c0.955,0,1.614-0.403,2.252-0.792
		c0.216-0.132,0.434-0.266,0.669-0.383c-0.004,0.003-0.002,0.004,0.004,0.004c0.012,0,0.037-0.004,0.057-0.004
		c0.053,0,0.132,0.038,0.279,0.112c0.289,0.145,0.563,0.577,0.647,0.834l0.147,0.299c0.173,0.334,0.389,0.749,0.389,1.003
		c0.001,0.37-0.092,0.646-0.198,0.966c-0.099,0.474-0.04,0.9,0.017,1.313c0.034,0.247,0.07,0.501,0.07,0.755v0.207l0.094,0.094
		c0.054,0.152,0.132,0.531,0.155,0.762c-0.695,0.354-1.473,0.672-2.261,0.911C26.932,32.914,26.929,32.913,26.927,32.913z
		 M15.708,29.923c-0.65,0-1.248-0.084-1.726-0.244c-0.163-0.042-0.317-0.073-0.473-0.101c-2.658-2.67-4.056-6.11-4.001-9.756
		c0.845-1.674,2.018-3.216,2.754-3.612c0.338-0.169,0.812-0.278,1.225-0.278c0.303,0,0.854,0,1.073,0.162v0.013
		c-0.008,0.025-0.049,0.066-0.078,0.096c-0.253,0.253-0.535,0.535-0.754,0.64h-0.921l-0.105,0.053
		c-0.327,0.164-0.558,0.47-0.687,0.91c-0.307,1.053,0.055,2.756,0.368,3.278c0.214,0.43,0.881,1.164,1.683,1.164
		c0.254,0,0.492-0.074,0.71-0.218c0.413-0.399,0.496-1.024,0.586-1.938c0.024-0.245,0.045-0.47,0.076-0.627
		c0.048-0.132,0.08-0.291,0.112-0.45c0.02-0.098,0.038-0.195,0.07-0.306c0.363-0.414,0.862-0.504,1.227-0.504
		c0.438,0,0.928,0.132,1.341,0.362c0.156,0.073,0.231,0.157,0.279,0.292c0.183,0.517-0.096,1.643-0.709,2.867
		c-0.2,0.13-0.466,0.263-0.588,0.627c-0.407,0.943-0.358,2.507,0.457,3.322c0.082,0.132,0.186,0.275,0.301,0.424
		c-0.026-0.001-0.053-0.002-0.08-0.002c-0.147,0-0.289,0.025-0.423,0.074c-0.238,0.007-0.378,0.05-0.585,0.257
		c-0.063,0.062-0.197,0.124-0.327,0.183c-0.324,0.147-0.813,0.369-0.934,0.972c-0.01,0.431,0.049,1.262,0.587,1.801
		c0.141,0.14,0.372,0.371,0.802,0.371h0.08l0.076-0.025c0.347-0.114,0.506-0.38,0.611-0.556c0.027-0.045,0.069-0.114,0.088-0.131
		l0.019-0.006c0.003,0.003,0.116,0.117,0.116,0.117s0.455,0.098,0.459,0.099c-0.112,0.055-0.222,0.112-0.328,0.167
		c-0.318,0.165-0.618,0.32-0.853,0.354C16.729,29.872,16.211,29.923,15.708,29.923z"/>
	<path style="fill:#5E9C76;" d="M11.591,17.498c-0.02,0.054-0.038,0.11-0.055,0.169c-0.332,1.141,0.004,2.937,0.399,3.638
		c0.309,0.592,1.115,1.443,2.132,1.443c0.35,0,0.691-0.104,0.988-0.302l0.082-0.055l0.07-0.07c0.454-0.454,0.554-1.158,0.654-2.18
		c0.019-0.199,0.039-0.403,0.061-0.532c0.06-0.196,0.093-0.361,0.121-0.497c0.01-0.049,0.019-0.099,0.031-0.15
		c0.19-0.171,0.45-0.257,0.775-0.257c0.357,0,0.757,0.109,1.143,0.306c0.101,0.183,0.016,1.064-0.627,2.386
		c-0.193,0.109-0.493,0.325-0.652,0.752c-0.436,1.046-0.415,2.581,0.308,3.58c-0.178,0.054-0.338,0.153-0.512,0.327
		c-0.031,0.022-0.134,0.069-0.202,0.1c-0.365,0.166-1.046,0.475-1.216,1.329l-0.019,0.097v0.099c0,0.337,0.053,1.106,0.483,1.741
		c-0.537-0.012-1.023-0.086-1.414-0.216l-0.037-0.012l-0.037-0.009c-0.1-0.025-0.206-0.048-0.317-0.069
		c-2.441-2.485-3.764-5.729-3.743-9.17C10.517,18.952,11.093,18.095,11.591,17.498 M27.595,26.188
		c0.017,0.009,0.035,0.018,0.054,0.027c0.123,0.062,0.331,0.347,0.397,0.544l0.023,0.068l0.032,0.064l0.123,0.24
		c0.114,0.219,0.325,0.626,0.333,0.775c0,0.287-0.072,0.505-0.173,0.807l-0.02,0.059l-0.012,0.061
		c-0.099,0.496-0.032,0.986,0.027,1.418c0.034,0.246,0.066,0.479,0.066,0.688l0,0.414l0.151,0.151
		c0.016,0.06,0.032,0.131,0.046,0.205c-0.529,0.255-1.069,0.472-1.613,0.649c-0.055-0.041-0.117-0.088-0.187-0.141
		c-0.175-0.131-0.352-0.262-0.399-0.3l-0.115-0.115l-0.145-0.073c-0.213-0.107-0.454-0.241-0.694-0.374
		c-0.265-0.147-0.531-0.295-0.767-0.413l-0.027-0.013l-0.027-0.012c-0.287-0.123-0.581-0.215-0.864-0.304
		c-0.514-0.161-1-0.313-1.294-0.607c-0.104-0.104-0.203-0.212-0.302-0.319c-0.26-0.282-0.554-0.601-0.929-0.858l0.107-0.107
		l1.352-1.352c0.075-0.04,0.154-0.084,0.236-0.129c0.164-0.091,0.437-0.242,0.611-0.317c0.02,0.012,0.041,0.025,0.063,0.038
		c0.167,0.1,0.375,0.225,0.648,0.316l0.155,0.051h0.162c1.095,0,1.847-0.46,2.511-0.865C27.285,26.368,27.44,26.273,27.595,26.188
		 M13.487,15.432c-0.45,0-1.011,0.112-1.46,0.338c-0.934,0.503-2.196,2.276-3.016,3.93c-0.085,3.674,1.284,7.374,4.119,10.209
		c0.047,0.047,0.098,0.089,0.146,0.136c0.194,0.033,0.382,0.067,0.549,0.109c0.557,0.186,1.216,0.269,1.884,0.269
		c0.545,0,1.095-0.056,1.6-0.157c0.74-0.106,1.581-0.909,2.52-0.909c0.059,0,0.117,0.003,0.177,0.01
		c0.787,0.113,1.236,0.787,1.798,1.349c0.674,0.674,1.686,0.787,2.472,1.123c0.45,0.225,1.012,0.562,1.461,0.787
		c0.112,0.112,0.899,0.674,1.011,0.787c0.018-0.006,0.038-0.009,0.059-0.009c0.043,0,0.092,0.011,0.143,0.027
		c0.929-0.271,1.831-0.645,2.697-1.11c0.009-0.008,0.013-0.026,0.023-0.031c0.112-0.112-0.113-1.237-0.225-1.349
		c0-0.674-0.225-1.349-0.112-1.911c0.112-0.337,0.225-0.674,0.224-1.124c0-0.45-0.337-1.011-0.562-1.461
		c-0.112-0.337-0.449-0.899-0.898-1.123c-0.192-0.096-0.33-0.165-0.503-0.165c-0.083,0-0.175,0.016-0.284,0.052
		c-0.899,0.449-1.573,1.123-2.696,1.123c0,0-0.001,0-0.001,0c-0.337-0.112-0.562-0.337-0.899-0.45c-0.45,0-1.124,0.45-1.573,0.674
		l-1.461,1.461l-0.787,0.787c-0.139,0.07-0.3,0.096-0.473,0.096c-0.384,0-0.825-0.131-1.213-0.209
		c-0.078-0.078-0.209-0.209-0.357-0.209c-0.066,0-0.136,0.026-0.206,0.096c-0.337,0.113-0.337,0.562-0.674,0.674
		c-0.001,0-0.001,0-0.002,0c-0.223,0-0.336-0.113-0.447-0.224c-0.338-0.338-0.45-0.9-0.45-1.349
		c0.112-0.562,0.787-0.562,1.124-0.899c0.112-0.112,0.112-0.112,0.337-0.112c0.101-0.051,0.208-0.073,0.317-0.073
		c0.374,0,0.77,0.261,1.032,0.523l0.225,0.225c0.033,0.033,0.066,0.047,0.099,0.047c0.079,0,0.159-0.079,0.238-0.159
		c-0.449-0.674-1.012-1.237-1.461-1.91c-0.674-0.674-0.675-2.023-0.337-2.81c0.113-0.337,0.45-0.224,0.562-0.562
		c0.45-0.899,1.461-3.259,0.225-3.82c-0.469-0.261-1.034-0.424-1.584-0.424c-0.637,0-1.252,0.219-1.675,0.762
		c-0.112,0.338-0.112,0.562-0.224,0.9c-0.112,0.562-0.112,1.911-0.45,2.248c-0.141,0.094-0.288,0.134-0.433,0.134
		c-0.547,0-1.075-0.566-1.253-0.921c-0.337-0.562-0.786-3.034,0.113-3.483c0.225,0,0.674,0,0.899,0
		c0.337-0.112,0.674-0.45,1.011-0.787c0.112-0.112,0.225-0.225,0.225-0.45c0-0.225,0-0.225-0.112-0.337
		C14.611,15.432,13.936,15.432,13.487,15.432L13.487,15.432z"/>
</g>
<g>
	<path style="fill:#7496C4;" d="M23.019,7c3.448,0,6.709,1.362,9.183,3.836c2.462,2.462,3.811,5.735,3.798,9.217
		c-0.012,3.462-1.361,6.711-3.798,9.148C29.752,31.651,26.487,33,23.007,33c-3.464,0-6.721-1.349-9.171-3.798
		c-5.149-5.149-5.149-13.216,0-18.365C16.31,8.362,19.572,7,23.019,7 M23.019,6c-3.568,0-7.137,1.376-9.89,4.129
		c-5.506,5.506-5.506,14.274,0,19.78c2.74,2.74,6.314,4.091,9.878,4.091c3.598,0,7.187-1.376,9.902-4.091
		c5.404-5.404,5.506-14.274,0-19.78C30.156,7.376,26.588,6,23.019,6L23.019,6z"/>
</g>
<g>
	<circle style="fill:#C29653;" cx="7" cy="3" r="1.5"/>
	<path style="fill:#8C6A3F;" d="M7,2c0.551,0,1,0.449,1,1S7.551,4,7,4S6,3.551,6,3S6.449,2,7,2 M7,1C5.895,1,5,1.895,5,3
		s0.895,2,2,2c1.105,0,2-0.895,2-2S8.105,1,7,1L7,1z"/>
</g>
<g>
	<path style="fill:#C29653;" d="M23.043,38.5c-4.93,0-9.565-1.92-13.052-5.406c-7.327-7.328-7.327-18.809,0-26.137
		c0.982-0.983,2.107-1.87,3.349-2.64l1.248,1.561c-1.16,0.703-2.229,1.54-3.183,2.493c-3.159,3.159-4.899,7.298-4.899,11.654
		s1.74,8.495,4.899,11.654c3.108,3.108,7.241,4.82,11.638,4.82c4.418,0,8.563-1.712,11.671-4.82
		c0.007-0.007,0.014-0.014,0.021-0.021l1.391,1.438C32.64,36.581,27.993,38.5,23.043,38.5z"/>
	<path style="fill:#8C6A3F;" d="M13.229,4.98l0.618,0.773c-1.01,0.657-1.947,1.416-2.796,2.265c-6.733,6.733-6.733,17.282,0,24.015
		C14.255,35.236,18.513,37,23.043,37c4.391,0,8.52-1.641,11.681-4.633l0.695,0.719C32.071,36.259,27.695,38,23.043,38
		c-4.797,0-9.307-1.868-12.698-5.259c-7.13-7.13-7.13-18.3,0-25.43C11.202,6.454,12.17,5.672,13.229,4.98 M13.456,3.663
		c-1.357,0.802-2.646,1.769-3.818,2.942c-7.472,7.472-7.472,19.372,0,26.844C13.356,37.166,18.206,39,23.043,39
		c4.884,0,9.754-1.868,13.438-5.552c0.117-0.117,0.221-0.241,0.328-0.363l-2.088-2.157c-0.118,0.135-0.234,0.271-0.362,0.399
		C31.346,34.34,27.327,36,23.043,36c-4.263,0-8.27-1.66-11.284-4.674c-6.337-6.337-6.337-16.264,0-22.601
		c1.082-1.082,2.289-1.984,3.582-2.706L13.456,3.663L13.456,3.663z"/>
</g>
</svg>
