<svg xmlns="http://www.w3.org/2000/svg" width="1000" height="1000"><rect width="1000" height="1000" x="0" y="0" fill="#f7f1e9" id="backgorund"/><g transform="translate(39,29)" id="visualization"><g><rect x="946" y="0" height="2.95458714475285" width="5" fill="black"><title>Philadelphia: 1567442</title></rect><rect x="946" y="7.95458714475285" height="3.162379119504635" width="5" fill="black"><title>Ecatepec de Morelos: 1677678</title></rect><rect x="946" y="16.116966264257485" height="3.304423207183845" width="5" fill="black"><title>Montreal: 1753034</title></rect><rect x="473" y="42.5" height="3.674567977622928" width="5" fill="black"><title>Belarus: 1949400</title></rect><rect x="946" y="24.42138947144133" height="3.674567977622928" width="5" fill="black"><title>Minsk: 1949400</title></rect><rect x="473" y="51.17456797762293" height="3.9916676996068645" width="5" fill="black"><title>Cuba: 2117625</title></rect><rect x="946" y="33.09595744906426" height="3.9916676996068645" width="5" fill="black"><title>Havana: 2117625</title></rect><rect x="473" y="60.16623567722979" height="4.224878546410764" width="5" fill="black"><title>France: 2241346</title></rect><rect x="946" y="42.08762514867112" height="4.224878546410764" width="5" fill="black"><title>Paris: 2241346</title></rect><rect x="946" y="51.31250369508189" height="4.3283221400682805" width="5" fill="black"><title>Houston: 2296224</title></rect><rect x="946" y="60.64082583515017" height="4.884321559864929" width="5" fill="black"><title>Fortaleza: 2591188</title></rect><rect x="946" y="70.5251473950151" height="5.128158004129432" width="5" fill="black"><title>Chicago: 2720546</title></rect><rect x="946" y="80.65330539914453" height="5.327874751008039" width="5" fill="black"><title>Toronto: 2826498</title></rect><rect x="473" y="69.39111422364056" height="5.417486406725857" width="5" fill="black"><title>Italy: 2874038</title></rect><rect x="946" y="90.98118015015257" height="5.417486406725857" width="5" fill="black"><title>Rome: 2874038</title></rect><rect x="473" y="79.80860063036641" height="5.48431438380112" width="5" fill="black"><title>Ukraine: 2909491</title></rect><rect x="946" y="101.39866655687842" height="5.48431438380112" width="5" fill="black"><title>Kiev: 2909491</title></rect><rect x="946" y="111.88298094067954" height="5.494378259061477" width="5" fill="black"><title>Brasília: 2914830</title></rect><rect x="946" y="122.37735919974102" height="5.506172540294642" width="5" fill="black"><title>Salvador: 2921087</title></rect><rect x="473" y="90.29291501416753" height="5.7572133545246515" width="5" fill="black"><title>Argentina: 3054267</title></rect><rect x="946" y="132.88353174003566" height="5.7572133545246515" width="5" fill="black"><title>Buenos Aires: 3054267</title></rect><rect x="473" y="101.05012836869219" height="5.966385130117601" width="5" fill="black"><title>Spain: 3165235</title></rect><rect x="946" y="143.64074509456032" height="5.966385130117601" width="5" fill="black"><title>Madrid: 3165235</title></rect><rect x="473" y="112.01651349880979" height="6.201349002580173" width="5" fill="black"><title>Venezuela: 3289886</title></rect><rect x="946" y="154.60713022467792" height="6.201349002580173" width="5" fill="black"><title>Caracas: 3289886</title></rect><rect x="473" y="123.21786250138996" height="6.714589676093624" width="5" fill="black"><title>Germany: 3562166</title></rect><rect x="946" y="165.8084792272581" height="6.714589676093624" width="5" fill="black"><title>Berlin: 3562166</title></rect><rect x="473" y="134.93245217748358" height="6.917853943713908" width="5" fill="black"><title>South Africa: 3670000</title></rect><rect x="946" y="177.5230689033517" height="6.917853943713908" width="5" fill="black"><title>Greater Johannesburg: 3670000</title></rect><rect x="946" y="189.44092284706562" height="7.486895497416981" width="5" fill="black"><title>Los Angeles: 3971883</title></rect><rect x="473" y="146.8503061211975" height="7.77551703482834" width="5" fill="black"><title>Ivory Coast: 4125000</title></rect><rect x="946" y="201.9278183444826" height="7.775517034828283" width="5" fill="black"><title>Abidjan: 4125000</title></rect><rect x="473" y="159.62582315602583" height="8.227045550231935" width="5" fill="black"><title>Tanzania: 4364541</title></rect><rect x="946" y="214.7033353793109" height="8.227045550231935" width="5" fill="black"><title>Dar es Salaam: 4364541</title></rect><rect x="946" y="227.93038092954282" height="8.269380177404116" width="5" fill="black"><title>Alexandria: 4387000</title></rect><rect x="473" y="172.85286870625777" height="8.632297958191884" width="5" fill="black"><title>Canada: 4579532</title></rect><rect x="473" y="186.48516666444965" height="8.995095100654737" width="5" fill="black"><title>Angola: 4772000</title></rect><rect x="946" y="241.19976110694694" height="8.995095100654737" width="5" fill="black"><title>Luanda: 4772000</title></rect><rect x="473" y="200.4802617651044" height="9.749084631304754" width="5" fill="black"><title>Sudan: 5172000</title></rect><rect x="946" y="255.19485620760167" height="9.749084631304754" width="5" fill="black"><title>Khartoum-Omdurman: 5172000</title></rect><rect x="946" y="269.9439408389064" height="9.850288876056311" width="5" fill="black"><title>Saint Petersburg: 5225690</title></rect><rect x="473" y="215.22934639640914" height="10.38108242584326" width="5" fill="black"><title>Chile: 5507282</title></rect><rect x="946" y="284.79422971496274" height="10.38108242584326" width="5" fill="black"><title>Santiago: 5507282</title></rect><rect x="473" y="230.6104288222524" height="11.962043903762549" width="5" fill="black"><title>Somalia: 6346000</title></rect><rect x="946" y="300.175312140806" height="11.962043903762606" width="5" fill="black"><title>Mogadishu: 6346000</title></rect><rect x="946" y="317.1373560445686" height="12.208279919708389" width="5" fill="black"><title>Rio de Janeiro: 6476631</title></rect><rect x="473" y="247.57247272601495" height="14.820186362676168" width="5" fill="black"><title>Colombia: 7862277</title></rect><rect x="946" y="334.345635964277" height="14.820186362676168" width="5" fill="black"><title>Bogotá: 7862277</title></rect><rect x="946" y="354.16582232695316" height="16.117289632043935" width="5" fill="black"><title>New York City: 8550405</title></rect><rect x="473" y="267.3926590886911" height="16.349721984657435" width="5" fill="black"><title>United Kingdom: 8673713</title></rect><rect x="946" y="375.2831119589971" height="16.349721984657435" width="5" fill="black"><title>London: 8673713</title></rect><rect x="473" y="288.74238107334855" height="16.501060878275666" width="5" fill="black"><title>Democratic Republic of the Congo: 8754000</title></rect><rect x="946" y="396.63283394365453" height="16.501060878275723" width="5" fill="black"><title>Kinshasa-Brazzaville: 8754000</title></rect><rect x="473" y="310.2434419516242" height="16.76573382321976" width="5" fill="black"><title>Peru: 8894412</title></rect><rect x="946" y="418.13389482193026" height="16.76573382321976" width="5" fill="black"><title>Lima: 8894412</title></rect><rect x="946" y="439.89962864515" height="16.811427473750996" width="5" fill="black"><title>Mexico City: 8918653</title></rect><rect x="473" y="332.009175774844" height="18.991695645133632" width="5" fill="black"><title>Indonesia: 10075310</title></rect><rect x="946" y="461.711056118901" height="18.991695645133632" width="5" fill="black"><title>Jakarta: 10075310</title></rect><rect x="946" y="485.70275176403464" height="19.730775032815075" width="5" fill="black"><title>Shenzhen: 10467400</title></rect><rect x="473" y="356.0008714199776" height="19.97380659325563" width="5" fill="black"><title>Mexico: 10596331</title></rect><rect x="946" y="510.4335267968497" height="20.73659706670219" width="5" fill="black"><title>Cairo: 11001000</title></rect><rect x="946" y="536.1701238635519" height="22.559036886628974" width="5" fill="black"><title>São Paulo: 11967825</title></rect><rect x="946" y="563.7291607501809" height="23.241964788989094" width="5" fill="black"><title>Moscow: 12330126</title></rect><rect x="946" y="591.97112553917" height="23.4535474461062" width="5" fill="black"><title>Mumbai: 12442373</title></rect><rect x="946" y="620.4246729852762" height="24.656400139169023" width="5" fill="black"><title>Guangzhou: 13080500</title></rect><rect x="473" y="380.97467801323324" height="25.473034889973064" width="5" fill="black"><title>Japan: 13513734</title></rect><rect x="946" y="650.0810731244452" height="25.473034889973064" width="5" fill="black"><title>Tokyo: 13513734</title></rect><rect x="473" y="411.4477129032063" height="26.437975611508364" width="5" fill="black"><title>Turkey: 14025646</title></rect><rect x="946" y="680.5541080144183" height="26.437975611508364" width="5" fill="black"><title>Istanbul: 14025646</title></rect><rect x="946" y="711.9920836259266" height="28.651602164700762" width="5" fill="black"><title>Tianjin: 15200000</title></rect><rect x="473" y="442.8856885147147" height="29.005977244106305" width="5" fill="black"><title>Egypt: 15388000</title></rect><rect x="946" y="745.6436857906274" height="31.644829387925597" width="5" fill="black"><title>Delhi: 16787941</title></rect><rect x="473" y="476.891665758821" height="33.09225366504529" width="5" fill="black"><title>Russia: 17555816</title></rect><rect x="473" y="514.9839194238663" height="33.134069924415144" width="5" fill="black"><title>Nigeria: 17578000</title></rect><rect x="946" y="782.288515178553" height="33.134069924415144" width="5" fill="black"><title>Lagos: 17578000</title></rect><rect x="473" y="553.1179893482814" height="36.01525241841159" width="5" fill="black"><title>United States: 19106500</title></rect><rect x="946" y="820.4225851029681" height="40.557096853664575" width="5" fill="black"><title>Beijing: 21516000</title></rect><rect x="473" y="594.133241766693" height="44.29688492568869" width="5" fill="black"><title>Pakistan: 23500000</title></rect><rect x="946" y="865.9796819566327" height="44.29688492568869" width="5" fill="black"><title>Karachi: 23500000</title></rect><rect x="946" y="915.2765668823214" height="45.72343311767861" width="5" fill="black"><title>Shanghai: 24256800</title></rect><rect x="473" y="643.4301266923817" height="50.652189165558525" width="5" fill="black"><title>Brazil: 26871561</title></rect><rect x="473" y="699.0823158579402" height="55.0983768340318" width="5" fill="black"><title>India: 29230314</title></rect><rect x="0" y="112.5" height="68.61302466946597" width="5" fill="black"><title>North America: 36399988</title></rect><rect x="0" y="186.11302466946597" height="104.57775413440243" width="5" fill="black"><title>South America: 55479685</title></rect><rect x="0" y="295.6907788038684" height="107.36217338198298" width="5" fill="black"><title>Europe: 56956851</title></rect><rect x="0" y="408.0529521858514" height="132.26774821129334" width="5" fill="black"><title>Africa: 70169541</title></rect><rect x="473" y="759.180692691972" height="159.319307308028" width="5" fill="black"><title>China: 84520700</title></rect><rect x="0" y="545.3207003971447" height="303.1792996028553" width="5" fill="black"><title>Asia: 160840058</title></rect></g><g fill="none" stroke-opacity="1"><g style="mix-blend-mode: multiply;"><path d="M5,768.8403463459858C239,768.8403463459858,239,838.8403463459861,473,838.8403463459861" stroke="#377eb8" stroke-width="159.319307308028"/><title>Asia → China: 84520700</title></g><g style="mix-blend-mode: multiply;"><path d="M5,611.9338733950958C239,611.9338733950958,239,616.2816842295374,473,616.2816842295374" stroke="#377eb8" stroke-width="44.29688492568871"/><title>Asia → Pakistan: 23500000</title></g><g style="mix-blend-mode: multiply;"><path d="M5,661.631504274956C239,661.631504274956,239,726.6315042749561,473,726.6315042749561" stroke="#377eb8" stroke-width="55.09837683403182"/><title>Asia → India: 29230314</title></g><g style="mix-blend-mode: multiply;"><path d="M5,577.0489134872648C239,577.0489134872648,239,393.7111954582198,473,393.7111954582198" stroke="#377eb8" stroke-width="25.473034889973064"/><title>Asia → Japan: 13513734</title></g><g style="mix-blend-mode: multiply;"><path d="M5,554.8165482197115C239,554.8165482197115,239,341.5050235974108,473,341.5050235974108" stroke="#377eb8" stroke-width="18.99169564513365"/><title>Asia → Indonesia: 10075310</title></g><g style="mix-blend-mode: multiply;"><path d="M5,523.7536654349373C239,523.7536654349373,239,531.5509543860738,473,531.5509543860738" stroke="#e41a1c" stroke-width="33.13406992441516"/><title>Africa → Nigeria: 17578000</title></g><g style="mix-blend-mode: multiply;"><path d="M5,492.6836418506765C239,492.6836418506765,239,457.3886771367678,473,457.3886771367678" stroke="#e41a1c" stroke-width="29.005977244106294"/><title>Africa → Egypt: 15388000</title></g><g style="mix-blend-mode: multiply;"><path d="M5,469.9301227894855C239,469.9301227894855,239,296.9929115124864,473,296.9929115124864" stroke="#e41a1c" stroke-width="16.501060878275702"/><title>Africa → Democratic Republic of the Congo: 8754000</title></g><g style="mix-blend-mode: multiply;"><path d="M5,455.6985703984664C239,455.6985703984664,239,236.5914507741337,473,236.5914507741337" stroke="#e41a1c" stroke-width="11.962043903762577"/><title>Africa → Somalia: 6346000</title></g><g style="mix-blend-mode: multiply;"><path d="M5,444.84300613093274C239,444.84300613093274,239,205.35480408075676,473,205.35480408075676" stroke="#e41a1c" stroke-width="9.749084631304767"/><title>Africa → Sudan: 5172000</title></g><g style="mix-blend-mode: multiply;"><path d="M5,435.470916264953C239,435.470916264953,239,190.98271421477702,473,190.98271421477702" stroke="#e41a1c" stroke-width="8.995095100654746"/><title>Africa → Angola: 4772000</title></g><g style="mix-blend-mode: multiply;"><path d="M5,426.8598459395096C239,426.8598459395096,239,163.7393459311418,473,163.7393459311418" stroke="#e41a1c" stroke-width="8.22704555023193"/><title>Africa → Tanzania: 4364541</title></g><g style="mix-blend-mode: multiply;"><path d="M5,418.8585646469795C239,418.8585646469795,239,150.73806463861166,473,150.73806463861166" stroke="#e41a1c" stroke-width="7.775517034828337"/><title>Africa → Ivory Coast: 4125000</title></g><g style="mix-blend-mode: multiply;"><path d="M5,411.51187915770834C239,411.51187915770834,239,138.39137914934057,473,138.39137914934057" stroke="#e41a1c" stroke-width="6.917853943713939"/><title>Africa → South Africa: 3670000</title></g><g style="mix-blend-mode: multiply;"><path d="M5,356.7417107150518C239,356.7417107150518,239,424.6667007089605,473,424.6667007089605" stroke="#4daf4a" stroke-width="26.437975611508346"/><title>Europe → Turkey: 14025646</title></g><g style="mix-blend-mode: multiply;"><path d="M5,386.5068253533286C239,386.5068253533286,239,493.4377925913436,473,493.4377925913436" stroke="#4daf4a" stroke-width="33.092253665045305"/><title>Europe → Russia: 17555816</title></g><g style="mix-blend-mode: multiply;"><path d="M5,335.3478619169689C239,335.3478619169689,239,275.56752008101984,473,275.56752008101984" stroke="#4daf4a" stroke-width="16.349721984657457"/><title>Europe → United Kingdom: 8673713</title></g><g style="mix-blend-mode: multiply;"><path d="M5,323.8157060865933C239,323.8157060865933,239,126.57515733943679,473,126.57515733943679" stroke="#4daf4a" stroke-width="6.714589676093653"/><title>Europe → Germany: 3562166</title></g><g style="mix-blend-mode: multiply;"><path d="M5,317.47521868348775C239,317.47521868348775,239,104.03332093375096,473,104.03332093375096" stroke="#4daf4a" stroke-width="5.966385130117545"/><title>Europe → Spain: 3165235</title></g><g style="mix-blend-mode: multiply;"><path d="M5,311.7498689265284C239,311.7498689265284,239,82.55075782226699,473,82.55075782226699" stroke="#4daf4a" stroke-width="5.484314383801148"/><title>Europe → Ukraine: 2909491</title></g><g style="mix-blend-mode: multiply;"><path d="M5,306.29896853126496C239,306.29896853126496,239,72.09985742700346,473,72.09985742700346" stroke="#4daf4a" stroke-width="5.41748640672581"/><title>Europe → Italy: 2874038</title></g><g style="mix-blend-mode: multiply;"><path d="M5,301.47778605469665C239,301.47778605469665,239,62.27867495043517,473,62.27867495043517" stroke="#4daf4a" stroke-width="4.2248785464107526"/><title>Europe → France: 2241346</title></g><g style="mix-blend-mode: multiply;"><path d="M5,297.52806279267986C239,297.52806279267986,239,44.337283988811436,473,44.337283988811436" stroke="#4daf4a" stroke-width="3.6745679776228752"/><title>Europe → Belarus: 1949400</title></g><g style="mix-blend-mode: multiply;"><path d="M5,135.11086895442656C239,135.11086895442656,239,365.98777471660543,473,365.98777471660543" stroke="#984ea3" stroke-width="19.97380659325566"/><title>North America → Mexico: 10596331</title></g><g style="mix-blend-mode: multiply;"><path d="M5,163.10539846026018C239,163.10539846026018,239,571.1256155574872,473,571.1256155574872" stroke="#984ea3" stroke-width="36.01525241841155"/><title>North America → United States: 19106500</title></g><g style="mix-blend-mode: multiply;"><path d="M5,120.80781667870282C239,120.80781667870282,239,177.1690176853537,473,177.1690176853537" stroke="#984ea3" stroke-width="8.632297958191876"/><title>North America → Canada: 4579532</title></g><g style="mix-blend-mode: multiply;"><path d="M5,114.49583384980343C239,114.49583384980343,239,53.17040182742637,473,53.17040182742637" stroke="#984ea3" stroke-width="3.9916676996068747"/><title>North America → Cuba: 2117625</title></g><g style="mix-blend-mode: multiply;"><path d="M5,265.3646842210892C239,265.3646842210892,239,668.7562212751609,473,668.7562212751609" stroke="#ff7f00" stroke-width="50.6521891655585"/><title>South America → Brazil: 26871561</title></g><g style="mix-blend-mode: multiply;"><path d="M5,231.65572272670005C239,231.65572272670005,239,318.6263088632341,473,318.6263088632341" stroke="#ff7f00" stroke-width="16.76573382321978"/><title>South America → Peru: 8894412</title></g><g style="mix-blend-mode: multiply;"><path d="M5,215.86276263375208C239,215.86276263375208,239,254.982565907353,473,254.982565907353" stroke="#ff7f00" stroke-width="14.82018636267613"/><title>South America → Colombia: 7862277</title></g><g style="mix-blend-mode: multiply;"><path d="M5,203.2621282394924C239,203.2621282394924,239,220.41988760933077,473,220.41988760933077" stroke="#ff7f00" stroke-width="10.381082425843267"/><title>South America → Chile: 5507282</title></g><g style="mix-blend-mode: multiply;"><path d="M5,194.97091252528068C239,194.97091252528068,239,115.11718800009987,473,115.11718800009987" stroke="#ff7f00" stroke-width="6.2013490025801845"/><title>South America → Venezuela: 3289886</title></g><g style="mix-blend-mode: multiply;"><path d="M5,188.99163134672827C239,188.99163134672827,239,93.17152169142985,473,93.17152169142985" stroke="#ff7f00" stroke-width="5.757213354524616"/><title>South America → Argentina: 3054267</title></g><g style="mix-blend-mode: multiply;"><path d="M478,895.6382834411606C712,895.6382834411606,712,938.1382834411606,946,938.1382834411606" stroke="#377eb8" stroke-width="45.72343311767855"/><title>China → Shanghai: 24256800</title></g><g style="mix-blend-mode: multiply;"><path d="M478,616.2816842295374C712,616.2816842295374,712,888.1281244194771,946,888.1281244194771" stroke="#377eb8" stroke-width="44.29688492568871"/><title>Pakistan → Karachi: 23500000</title></g><g style="mix-blend-mode: multiply;"><path d="M478,852.4980184554892C712,852.4980184554892,712,840.7011335298005,946,840.7011335298005" stroke="#377eb8" stroke-width="40.55709685366461"/><title>China → Beijing: 21516000</title></g><g style="mix-blend-mode: multiply;"><path d="M478,738.3582779980092C712,738.3582779980092,712,761.4661004845901,946,761.4661004845901" stroke="#377eb8" stroke-width="31.644829387925594"/><title>India → Delhi: 16787941</title></g><g style="mix-blend-mode: multiply;"><path d="M478,817.8936689463064C712,817.8936689463064,712,726.317884708277,946,726.317884708277" stroke="#377eb8" stroke-width="28.651602164700783"/><title>China → Tianjin: 15200000</title></g><g style="mix-blend-mode: multiply;"><path d="M478,393.7111954582198C712,393.7111954582198,712,662.8175905694318,946,662.8175905694318" stroke="#377eb8" stroke-width="25.473034889973064"/><title>Japan → Tokyo: 13513734</title></g><g style="mix-blend-mode: multiply;"><path d="M478,791.2396677943715C712,791.2396677943715,712,632.7528730548606,946,632.7528730548606" stroke="#377eb8" stroke-width="24.656400139168987"/><title>China → Guangzhou: 13080500</title></g><g style="mix-blend-mode: multiply;"><path d="M478,710.8090895809934C712,710.8090895809934,712,603.6978992622231,946,603.6978992622231" stroke="#377eb8" stroke-width="23.45354744610622"/><title>India → Mumbai: 12442373</title></g><g style="mix-blend-mode: multiply;"><path d="M478,769.0460802083795C712,769.0460802083795,712,495.56813928044215,946,495.56813928044215" stroke="#377eb8" stroke-width="19.730775032815064"/><title>China → Shenzhen: 10467400</title></g><g style="mix-blend-mode: multiply;"><path d="M478,341.5050235974108C712,341.5050235974108,712,471.20690394146783,946,471.20690394146783" stroke="#377eb8" stroke-width="18.99169564513365"/><title>Indonesia → Jakarta: 10075310</title></g><g style="mix-blend-mode: multiply;"><path d="M478,531.5509543860738C712,531.5509543860738,712,798.8555501407606,946,798.8555501407606" stroke="#e41a1c" stroke-width="33.13406992441516"/><title>Nigeria → Lagos: 17578000</title></g><g style="mix-blend-mode: multiply;"><path d="M478,461.5233672254699C712,461.5233672254699,712,520.8018253302008,946,520.8018253302008" stroke="#e41a1c" stroke-width="20.736597066702192"/><title>Egypt → Cairo: 11001000</title></g><g style="mix-blend-mode: multiply;"><path d="M478,296.9929115124864C712,296.9929115124864,712,404.88336438279237,946,404.88336438279237" stroke="#e41a1c" stroke-width="16.501060878275702"/><title>Democratic Republic of the Congo → Kinshasa-Brazzaville: 8754000</title></g><g style="mix-blend-mode: multiply;"><path d="M478,236.5914507741337C712,236.5914507741337,712,306.1563340926873,946,306.1563340926873" stroke="#e41a1c" stroke-width="11.962043903762577"/><title>Somalia → Mogadishu: 6346000</title></g><g style="mix-blend-mode: multiply;"><path d="M478,205.35480408075676C712,205.35480408075676,712,260.06939852325405,946,260.06939852325405" stroke="#e41a1c" stroke-width="9.749084631304767"/><title>Sudan → Khartoum-Omdurman: 5172000</title></g><g style="mix-blend-mode: multiply;"><path d="M478,190.98271421477702C712,190.98271421477702,712,245.6973086572743,946,245.6973086572743" stroke="#e41a1c" stroke-width="8.995095100654746"/><title>Angola → Luanda: 4772000</title></g><g style="mix-blend-mode: multiply;"><path d="M478,447.0203786034167C712,447.0203786034167,712,232.06507101824488,946,232.06507101824488" stroke="#e41a1c" stroke-width="8.2693801774041"/><title>Egypt → Alexandria: 4387000</title></g><g style="mix-blend-mode: multiply;"><path d="M478,163.7393459311418C712,163.7393459311418,712,218.81685815442685,946,218.81685815442685" stroke="#e41a1c" stroke-width="8.22704555023193"/><title>Tanzania → Dar es Salaam: 4364541</title></g><g style="mix-blend-mode: multiply;"><path d="M478,150.73806463861166C712,150.73806463861166,712,205.81557686189677,946,205.81557686189677" stroke="#e41a1c" stroke-width="7.775517034828337"/><title>Ivory Coast → Abidjan: 4125000</title></g><g style="mix-blend-mode: multiply;"><path d="M478,138.39137914934057C712,138.39137914934057,712,180.9819958752087,946,180.9819958752087" stroke="#e41a1c" stroke-width="6.917853943713939"/><title>South Africa → Greater Johannesburg: 3670000</title></g><g style="mix-blend-mode: multiply;"><path d="M478,424.6667007089605C712,424.6667007089605,712,693.7730958201724,946,693.7730958201724" stroke="#4daf4a" stroke-width="26.437975611508346"/><title>Turkey → Istanbul: 14025646</title></g><g style="mix-blend-mode: multiply;"><path d="M478,498.3629370293718C712,498.3629370293718,712,575.3501431446754,946,575.3501431446754" stroke="#4daf4a" stroke-width="23.24196478898904"/><title>Russia → Moscow: 12330126</title></g><g style="mix-blend-mode: multiply;"><path d="M478,275.56752008101984C712,275.56752008101984,712,383.4579729513258,946,383.4579729513258" stroke="#4daf4a" stroke-width="16.349721984657457"/><title>United Kingdom → London: 8673713</title></g><g style="mix-blend-mode: multiply;"><path d="M478,481.81681019684913C712,481.81681019684913,712,274.8690852769346,946,274.8690852769346" stroke="#4daf4a" stroke-width="9.850288876056265"/><title>Russia → Saint Petersburg: 5225690</title></g><g style="mix-blend-mode: multiply;"><path d="M478,126.57515733943679C712,126.57515733943679,712,169.16577406530493,946,169.16577406530493" stroke="#4daf4a" stroke-width="6.714589676093653"/><title>Germany → Berlin: 3562166</title></g><g style="mix-blend-mode: multiply;"><path d="M478,104.03332093375096C712,104.03332093375096,712,146.6239376596191,946,146.6239376596191" stroke="#4daf4a" stroke-width="5.966385130117545"/><title>Spain → Madrid: 3165235</title></g><g style="mix-blend-mode: multiply;"><path d="M478,82.55075782226699C712,82.55075782226699,712,104.140823748779,946,104.140823748779" stroke="#4daf4a" stroke-width="5.484314383801148"/><title>Ukraine → Kiev: 2909491</title></g><g style="mix-blend-mode: multiply;"><path d="M478,72.09985742700346C712,72.09985742700346,712,93.68992335351547,946,93.68992335351547" stroke="#4daf4a" stroke-width="5.41748640672581"/><title>Italy → Rome: 2874038</title></g><g style="mix-blend-mode: multiply;"><path d="M478,62.27867495043517C712,62.27867495043517,712,44.2000644218765,946,44.2000644218765" stroke="#4daf4a" stroke-width="4.2248785464107526"/><title>France → Paris: 2241346</title></g><g style="mix-blend-mode: multiply;"><path d="M478,44.337283988811436C712,44.337283988811436,712,26.25867346025277,946,26.25867346025277" stroke="#4daf4a" stroke-width="3.6745679776228752"/><title>Belarus → Minsk: 1949400</title></g><g style="mix-blend-mode: multiply;"><path d="M478,367.56896427635775C712,367.56896427635775,712,448.3053423820255,946,448.3053423820255" stroke="#984ea3" stroke-width="16.811427473750996"/><title>Mexico → Mexico City: 8918653</title></g><g style="mix-blend-mode: multiply;"><path d="M478,581.074596950671C712,581.074596950671,712,362.22446714297513,946,362.22446714297513" stroke="#984ea3" stroke-width="16.117289632043974"/><title>United States → New York City: 8550405</title></g><g style="mix-blend-mode: multiply;"><path d="M478,569.2725043859405C712,569.2725043859405,712,193.1843705957741,946,193.1843705957741" stroke="#984ea3" stroke-width="7.48689549741699"/><title>United States → Los Angeles: 3971883</title></g><g style="mix-blend-mode: multiply;"><path d="M478,178.8212292889456C712,178.8212292889456,712,83.31724277464856,946,83.31724277464856" stroke="#984ea3" stroke-width="5.327874751008055"/><title>Canada → Toronto: 2826498</title></g><g style="mix-blend-mode: multiply;"><path d="M478,562.9649776351673C712,562.9649776351673,712,73.08922639707984,946,73.08922639707984" stroke="#984ea3" stroke-width="5.128158004129477"/><title>United States → Chicago: 2720546</title></g><g style="mix-blend-mode: multiply;"><path d="M478,558.2367375630685C712,558.2367375630685,712,53.47666476511603,946,53.47666476511603" stroke="#984ea3" stroke-width="4.328322140068282"/><title>United States → Houston: 2296224</title></g><g style="mix-blend-mode: multiply;"><path d="M478,53.17040182742637C712,53.17040182742637,712,35.0917912988677,946,35.0917912988677" stroke="#984ea3" stroke-width="3.9916676996068747"/><title>Cuba → Havana: 2117625</title></g><g style="mix-blend-mode: multiply;"><path d="M478,174.5050803098497C712,174.5050803098497,712,17.769177867849397,946,17.769177867849397" stroke="#984ea3" stroke-width="3.3044232071838207"/><title>Canada → Montreal: 1753034</title></g><g style="mix-blend-mode: multiply;"><path d="M478,357.58206097972993C712,357.58206097972993,712,9.535776704505182,946,9.535776704505182" stroke="#984ea3" stroke-width="3.162379119504663"/><title>Mexico → Ecatepec de Morelos: 1677678</title></g><g style="mix-blend-mode: multiply;"><path d="M478,554.5952829206578C712,554.5952829206578,712,1.477293572376412,946,1.477293572376412" stroke="#984ea3" stroke-width="2.954587144752824"/><title>United States → Philadelphia: 1567442</title></g><g style="mix-blend-mode: multiply;"><path d="M478,682.8027974146256C712,682.8027974146256,712,547.4496423068664,946,547.4496423068664" stroke="#ff7f00" stroke-width="22.559036886628956"/><title>Brazil → São Paulo: 11967825</title></g><g style="mix-blend-mode: multiply;"><path d="M478,318.6263088632341C712,318.6263088632341,712,426.51676173354014,946,426.51676173354014" stroke="#ff7f00" stroke-width="16.76573382321978"/><title>Peru → Lima: 8894412</title></g><g style="mix-blend-mode: multiply;"><path d="M478,254.982565907353C712,254.982565907353,712,341.7557291456151,946,341.7557291456151" stroke="#ff7f00" stroke-width="14.82018636267613"/><title>Colombia → Bogotá: 7862277</title></g><g style="mix-blend-mode: multiply;"><path d="M478,665.419139011457C712,665.419139011457,712,323.2414960044228,946,323.2414960044228" stroke="#ff7f00" stroke-width="12.208279919708435"/><title>Brazil → Rio de Janeiro: 6476631</title></g><g style="mix-blend-mode: multiply;"><path d="M478,220.41988760933077C712,220.41988760933077,712,289.98477092788437,946,289.98477092788437" stroke="#ff7f00" stroke-width="10.381082425843267"/><title>Chile → Santiago: 5507282</title></g><g style="mix-blend-mode: multiply;"><path d="M478,115.11718800009987C712,115.11718800009987,712,157.707804725968,946,157.707804725968" stroke="#ff7f00" stroke-width="6.2013490025801845"/><title>Venezuela → Caracas: 3289886</title></g><g style="mix-blend-mode: multiply;"><path d="M478,93.17152169142985C712,93.17152169142985,712,135.76213841729796,946,135.76213841729796" stroke="#ff7f00" stroke-width="5.757213354524616"/><title>Argentina → Buenos Aires: 3054267</title></g><g style="mix-blend-mode: multiply;"><path d="M478,656.5619127814555C712,656.5619127814555,712,125.13044546988837,946,125.13044546988837" stroke="#ff7f00" stroke-width="5.506172540294692"/><title>Brazil → Salvador: 2921087</title></g><g style="mix-blend-mode: multiply;"><path d="M478,651.0616373817774C712,651.0616373817774,712,114.6301700702103,946,114.6301700702103" stroke="#ff7f00" stroke-width="5.494378259061499"/><title>Brazil → Brasília: 2914830</title></g><g style="mix-blend-mode: multiply;"><path d="M478,645.8722874723142C712,645.8722874723142,712,63.082986615082625,946,63.082986615082625" stroke="#ff7f00" stroke-width="4.884321559864914"/><title>Brazil → Fortaleza: 2591188</title></g></g><g><text x="942" y="1.477293572376425" text-anchor="end"><tspan alignment-baseline="middle" x="942" style="font-family: Arial, sans-serif; font-size: 10px; fill: black; font-weight: bold;">Philadelphia</tspan></text><text x="942" y="9.535776704505167" text-anchor="end"><tspan alignment-baseline="middle" x="942" style="font-family: Arial, sans-serif; font-size: 10px; fill: black; font-weight: bold;">Ecatepec de Morelos</tspan></text><text x="942" y="17.769177867849407" text-anchor="end"><tspan alignment-baseline="middle" x="942" style="font-family: Arial, sans-serif; font-size: 10px; fill: black; font-weight: bold;">Montreal</tspan></text><text x="482" y="44.337283988811464" text-anchor="start"><tspan alignment-baseline="middle" x="482" style="font-family: Arial, sans-serif; font-size: 10px; fill: black; font-weight: bold;">Belarus</tspan></text><text x="942" y="26.258673460252794" text-anchor="end"><tspan alignment-baseline="middle" x="942" style="font-family: Arial, sans-serif; font-size: 10px; fill: black; font-weight: bold;">Minsk</tspan></text><text x="482" y="53.17040182742636" text-anchor="start"><tspan alignment-baseline="middle" x="482" style="font-family: Arial, sans-serif; font-size: 10px; fill: black; font-weight: bold;">Cuba</tspan></text><text x="942" y="35.09179129886769" text-anchor="end"><tspan alignment-baseline="middle" x="942" style="font-family: Arial, sans-serif; font-size: 10px; fill: black; font-weight: bold;">Havana</tspan></text><text x="482" y="62.278674950435175" text-anchor="start"><tspan alignment-baseline="middle" x="482" style="font-family: Arial, sans-serif; font-size: 10px; fill: black; font-weight: bold;">France</tspan></text><text x="942" y="44.200064421876505" text-anchor="end"><tspan alignment-baseline="middle" x="942" style="font-family: Arial, sans-serif; font-size: 10px; fill: black; font-weight: bold;">Paris</tspan></text><text x="942" y="53.47666476511603" text-anchor="end"><tspan alignment-baseline="middle" x="942" style="font-family: Arial, sans-serif; font-size: 10px; fill: black; font-weight: bold;">Houston</tspan></text><text x="942" y="63.08298661508263" text-anchor="end"><tspan alignment-baseline="middle" x="942" style="font-family: Arial, sans-serif; font-size: 10px; fill: black; font-weight: bold;">Fortaleza</tspan></text><text x="942" y="73.08922639707981" text-anchor="end"><tspan alignment-baseline="middle" x="942" style="font-family: Arial, sans-serif; font-size: 10px; fill: black; font-weight: bold;">Chicago</tspan></text><text x="942" y="83.31724277464855" text-anchor="end"><tspan alignment-baseline="middle" x="942" style="font-family: Arial, sans-serif; font-size: 10px; fill: black; font-weight: bold;">Toronto</tspan></text><text x="482" y="72.09985742700349" text-anchor="start"><tspan alignment-baseline="middle" x="482" style="font-family: Arial, sans-serif; font-size: 10px; fill: black; font-weight: bold;">Italy</tspan></text><text x="942" y="93.6899233535155" text-anchor="end"><tspan alignment-baseline="middle" x="942" style="font-family: Arial, sans-serif; font-size: 10px; fill: black; font-weight: bold;">Rome</tspan></text><text x="482" y="82.55075782226697" text-anchor="start"><tspan alignment-baseline="middle" x="482" style="font-family: Arial, sans-serif; font-size: 10px; fill: black; font-weight: bold;">Ukraine</tspan></text><text x="942" y="104.14082374877898" text-anchor="end"><tspan alignment-baseline="middle" x="942" style="font-family: Arial, sans-serif; font-size: 10px; fill: black; font-weight: bold;">Kiev</tspan></text><text x="942" y="114.63017007021028" text-anchor="end"><tspan alignment-baseline="middle" x="942" style="font-family: Arial, sans-serif; font-size: 10px; fill: black; font-weight: bold;">Brasília</tspan></text><text x="942" y="125.13044546988834" text-anchor="end"><tspan alignment-baseline="middle" x="942" style="font-family: Arial, sans-serif; font-size: 10px; fill: black; font-weight: bold;">Salvador</tspan></text><text x="482" y="93.17152169142986" text-anchor="start"><tspan alignment-baseline="middle" x="482" style="font-family: Arial, sans-serif; font-size: 10px; fill: black; font-weight: bold;">Argentina</tspan></text><text x="942" y="135.762138417298" text-anchor="end"><tspan alignment-baseline="middle" x="942" style="font-family: Arial, sans-serif; font-size: 10px; fill: black; font-weight: bold;">Buenos Aires</tspan></text><text x="482" y="104.03332093375099" text-anchor="start"><tspan alignment-baseline="middle" x="482" style="font-family: Arial, sans-serif; font-size: 10px; fill: black; font-weight: bold;">Spain</tspan></text><text x="942" y="146.62393765961912" text-anchor="end"><tspan alignment-baseline="middle" x="942" style="font-family: Arial, sans-serif; font-size: 10px; fill: black; font-weight: bold;">Madrid</tspan></text><text x="482" y="115.11718800009987" text-anchor="start"><tspan alignment-baseline="middle" x="482" style="font-family: Arial, sans-serif; font-size: 10px; fill: black; font-weight: bold;">Venezuela</tspan></text><text x="942" y="157.707804725968" text-anchor="end"><tspan alignment-baseline="middle" x="942" style="font-family: Arial, sans-serif; font-size: 10px; fill: black; font-weight: bold;">Caracas</tspan></text><text x="482" y="126.57515733943677" text-anchor="start"><tspan alignment-baseline="middle" x="482" style="font-family: Arial, sans-serif; font-size: 10px; fill: black; font-weight: bold;">Germany</tspan></text><text x="942" y="169.1657740653049" text-anchor="end"><tspan alignment-baseline="middle" x="942" style="font-family: Arial, sans-serif; font-size: 10px; fill: black; font-weight: bold;">Berlin</tspan></text><text x="482" y="138.39137914934054" text-anchor="start"><tspan alignment-baseline="middle" x="482" style="font-family: Arial, sans-serif; font-size: 10px; fill: black; font-weight: bold;">South Africa</tspan></text><text x="942" y="180.98199587520867" text-anchor="end"><tspan alignment-baseline="middle" x="942" style="font-family: Arial, sans-serif; font-size: 10px; fill: black; font-weight: bold;">Greater Johannesburg</tspan></text><text x="942" y="193.1843705957741" text-anchor="end"><tspan alignment-baseline="middle" x="942" style="font-family: Arial, sans-serif; font-size: 10px; fill: black; font-weight: bold;">Los Angeles</tspan></text><text x="482" y="150.73806463861166" text-anchor="start"><tspan alignment-baseline="middle" x="482" style="font-family: Arial, sans-serif; font-size: 10px; fill: black; font-weight: bold;">Ivory Coast</tspan></text><text x="942" y="205.81557686189674" text-anchor="end"><tspan alignment-baseline="middle" x="942" style="font-family: Arial, sans-serif; font-size: 10px; fill: black; font-weight: bold;">Abidjan</tspan></text><text x="482" y="163.7393459311418" text-anchor="start"><tspan alignment-baseline="middle" x="482" style="font-family: Arial, sans-serif; font-size: 10px; fill: black; font-weight: bold;">Tanzania</tspan></text><text x="942" y="218.81685815442685" text-anchor="end"><tspan alignment-baseline="middle" x="942" style="font-family: Arial, sans-serif; font-size: 10px; fill: black; font-weight: bold;">Dar es Salaam</tspan></text><text x="942" y="232.06507101824488" text-anchor="end"><tspan alignment-baseline="middle" x="942" style="font-family: Arial, sans-serif; font-size: 10px; fill: black; font-weight: bold;">Alexandria</tspan></text><text x="482" y="177.1690176853537" text-anchor="start"><tspan alignment-baseline="middle" x="482" style="font-family: Arial, sans-serif; font-size: 10px; fill: black; font-weight: bold;">Canada</tspan></text><text x="482" y="190.98271421477702" text-anchor="start"><tspan alignment-baseline="middle" x="482" style="font-family: Arial, sans-serif; font-size: 10px; fill: black; font-weight: bold;">Angola</tspan></text><text x="942" y="245.6973086572743" text-anchor="end"><tspan alignment-baseline="middle" x="942" style="font-family: Arial, sans-serif; font-size: 10px; fill: black; font-weight: bold;">Luanda</tspan></text><text x="482" y="205.35480408075676" text-anchor="start"><tspan alignment-baseline="middle" x="482" style="font-family: Arial, sans-serif; font-size: 10px; fill: black; font-weight: bold;">Sudan</tspan></text><text x="942" y="260.06939852325405" text-anchor="end"><tspan alignment-baseline="middle" x="942" style="font-family: Arial, sans-serif; font-size: 10px; fill: black; font-weight: bold;">Khartoum-Omdurman</tspan></text><text x="942" y="274.8690852769346" text-anchor="end"><tspan alignment-baseline="middle" x="942" style="font-family: Arial, sans-serif; font-size: 10px; fill: black; font-weight: bold;">Saint Petersburg</tspan></text><text x="482" y="220.41988760933077" text-anchor="start"><tspan alignment-baseline="middle" x="482" style="font-family: Arial, sans-serif; font-size: 10px; fill: black; font-weight: bold;">Chile</tspan></text><text x="942" y="289.98477092788437" text-anchor="end"><tspan alignment-baseline="middle" x="942" style="font-family: Arial, sans-serif; font-size: 10px; fill: black; font-weight: bold;">Santiago</tspan></text><text x="482" y="236.59145077413368" text-anchor="start"><tspan alignment-baseline="middle" x="482" style="font-family: Arial, sans-serif; font-size: 10px; fill: black; font-weight: bold;">Somalia</tspan></text><text x="942" y="306.1563340926873" text-anchor="end"><tspan alignment-baseline="middle" x="942" style="font-family: Arial, sans-serif; font-size: 10px; fill: black; font-weight: bold;">Mogadishu</tspan></text><text x="942" y="323.2414960044228" text-anchor="end"><tspan alignment-baseline="middle" x="942" style="font-family: Arial, sans-serif; font-size: 10px; fill: black; font-weight: bold;">Rio de Janeiro</tspan></text><text x="482" y="254.98256590735303" text-anchor="start"><tspan alignment-baseline="middle" x="482" style="font-family: Arial, sans-serif; font-size: 10px; fill: black; font-weight: bold;">Colombia</tspan></text><text x="942" y="341.7557291456151" text-anchor="end"><tspan alignment-baseline="middle" x="942" style="font-family: Arial, sans-serif; font-size: 10px; fill: black; font-weight: bold;">Bogotá</tspan></text><text x="942" y="362.22446714297513" text-anchor="end"><tspan alignment-baseline="middle" x="942" style="font-family: Arial, sans-serif; font-size: 10px; fill: black; font-weight: bold;">New York City</tspan></text><text x="482" y="275.56752008101984" text-anchor="start"><tspan alignment-baseline="middle" x="482" style="font-family: Arial, sans-serif; font-size: 10px; fill: black; font-weight: bold;">United Kingdom</tspan></text><text x="942" y="383.4579729513258" text-anchor="end"><tspan alignment-baseline="middle" x="942" style="font-family: Arial, sans-serif; font-size: 10px; fill: black; font-weight: bold;">London</tspan></text><text x="482" y="296.9929115124864" text-anchor="start"><tspan alignment-baseline="middle" x="482" style="font-family: Arial, sans-serif; font-size: 10px; fill: black; font-weight: bold;">Democratic Republic of the Congo</tspan></text><text x="942" y="404.88336438279237" text-anchor="end"><tspan alignment-baseline="middle" x="942" style="font-family: Arial, sans-serif; font-size: 10px; fill: black; font-weight: bold;">Kinshasa-Brazzaville</tspan></text><text x="482" y="318.6263088632341" text-anchor="start"><tspan alignment-baseline="middle" x="482" style="font-family: Arial, sans-serif; font-size: 10px; fill: black; font-weight: bold;">Peru</tspan></text><text x="942" y="426.51676173354014" text-anchor="end"><tspan alignment-baseline="middle" x="942" style="font-family: Arial, sans-serif; font-size: 10px; fill: black; font-weight: bold;">Lima</tspan></text><text x="942" y="448.3053423820255" text-anchor="end"><tspan alignment-baseline="middle" x="942" style="font-family: Arial, sans-serif; font-size: 10px; fill: black; font-weight: bold;">Mexico City</tspan></text><text x="482" y="341.5050235974108" text-anchor="start"><tspan alignment-baseline="middle" x="482" style="font-family: Arial, sans-serif; font-size: 10px; fill: black; font-weight: bold;">Indonesia</tspan></text><text x="942" y="471.20690394146783" text-anchor="end"><tspan alignment-baseline="middle" x="942" style="font-family: Arial, sans-serif; font-size: 10px; fill: black; font-weight: bold;">Jakarta</tspan></text><text x="942" y="495.5681392804422" text-anchor="end"><tspan alignment-baseline="middle" x="942" style="font-family: Arial, sans-serif; font-size: 10px; fill: black; font-weight: bold;">Shenzhen</tspan></text><text x="482" y="365.98777471660543" text-anchor="start"><tspan alignment-baseline="middle" x="482" style="font-family: Arial, sans-serif; font-size: 10px; fill: black; font-weight: bold;">Mexico</tspan></text><text x="942" y="520.8018253302008" text-anchor="end"><tspan alignment-baseline="middle" x="942" style="font-family: Arial, sans-serif; font-size: 10px; fill: black; font-weight: bold;">Cairo</tspan></text><text x="942" y="547.4496423068664" text-anchor="end"><tspan alignment-baseline="middle" x="942" style="font-family: Arial, sans-serif; font-size: 10px; fill: black; font-weight: bold;">São Paulo</tspan></text><text x="942" y="575.3501431446755" text-anchor="end"><tspan alignment-baseline="middle" x="942" style="font-family: Arial, sans-serif; font-size: 10px; fill: black; font-weight: bold;">Moscow</tspan></text><text x="942" y="603.697899262223" text-anchor="end"><tspan alignment-baseline="middle" x="942" style="font-family: Arial, sans-serif; font-size: 10px; fill: black; font-weight: bold;">Mumbai</tspan></text><text x="942" y="632.7528730548606" text-anchor="end"><tspan alignment-baseline="middle" x="942" style="font-family: Arial, sans-serif; font-size: 10px; fill: black; font-weight: bold;">Guangzhou</tspan></text><text x="482" y="393.7111954582198" text-anchor="start"><tspan alignment-baseline="middle" x="482" style="font-family: Arial, sans-serif; font-size: 10px; fill: black; font-weight: bold;">Japan</tspan></text><text x="942" y="662.8175905694318" text-anchor="end"><tspan alignment-baseline="middle" x="942" style="font-family: Arial, sans-serif; font-size: 10px; fill: black; font-weight: bold;">Tokyo</tspan></text><text x="482" y="424.6667007089605" text-anchor="start"><tspan alignment-baseline="middle" x="482" style="font-family: Arial, sans-serif; font-size: 10px; fill: black; font-weight: bold;">Turkey</tspan></text><text x="942" y="693.7730958201724" text-anchor="end"><tspan alignment-baseline="middle" x="942" style="font-family: Arial, sans-serif; font-size: 10px; fill: black; font-weight: bold;">Istanbul</tspan></text><text x="942" y="726.317884708277" text-anchor="end"><tspan alignment-baseline="middle" x="942" style="font-family: Arial, sans-serif; font-size: 10px; fill: black; font-weight: bold;">Tianjin</tspan></text><text x="482" y="457.3886771367678" text-anchor="start"><tspan alignment-baseline="middle" x="482" style="font-family: Arial, sans-serif; font-size: 10px; fill: black; font-weight: bold;">Egypt</tspan></text><text x="942" y="761.4661004845902" text-anchor="end"><tspan alignment-baseline="middle" x="942" style="font-family: Arial, sans-serif; font-size: 10px; fill: black; font-weight: bold;">Delhi</tspan></text><text x="482" y="493.4377925913436" text-anchor="start"><tspan alignment-baseline="middle" x="482" style="font-family: Arial, sans-serif; font-size: 10px; fill: black; font-weight: bold;">Russia</tspan></text><text x="482" y="531.5509543860738" text-anchor="start"><tspan alignment-baseline="middle" x="482" style="font-family: Arial, sans-serif; font-size: 10px; fill: black; font-weight: bold;">Nigeria</tspan></text><text x="942" y="798.8555501407606" text-anchor="end"><tspan alignment-baseline="middle" x="942" style="font-family: Arial, sans-serif; font-size: 10px; fill: black; font-weight: bold;">Lagos</tspan></text><text x="482" y="571.1256155574872" text-anchor="start"><tspan alignment-baseline="middle" x="482" style="font-family: Arial, sans-serif; font-size: 10px; fill: black; font-weight: bold;">United States</tspan></text><text x="942" y="840.7011335298005" text-anchor="end"><tspan alignment-baseline="middle" x="942" style="font-family: Arial, sans-serif; font-size: 10px; fill: black; font-weight: bold;">Beijing</tspan></text><text x="482" y="616.2816842295374" text-anchor="start"><tspan alignment-baseline="middle" x="482" style="font-family: Arial, sans-serif; font-size: 10px; fill: black; font-weight: bold;">Pakistan</tspan></text><text x="942" y="888.128124419477" text-anchor="end"><tspan alignment-baseline="middle" x="942" style="font-family: Arial, sans-serif; font-size: 10px; fill: black; font-weight: bold;">Karachi</tspan></text><text x="942" y="938.1382834411606" text-anchor="end"><tspan alignment-baseline="middle" x="942" style="font-family: Arial, sans-serif; font-size: 10px; fill: black; font-weight: bold;">Shanghai</tspan></text><text x="482" y="668.7562212751609" text-anchor="start"><tspan alignment-baseline="middle" x="482" style="font-family: Arial, sans-serif; font-size: 10px; fill: black; font-weight: bold;">Brazil</tspan></text><text x="482" y="726.6315042749561" text-anchor="start"><tspan alignment-baseline="middle" x="482" style="font-family: Arial, sans-serif; font-size: 10px; fill: black; font-weight: bold;">India</tspan></text><text x="9" y="146.806512334733" text-anchor="start"><tspan alignment-baseline="middle" x="9" style="font-family: Arial, sans-serif; font-size: 10px; fill: black; font-weight: bold;">North America</tspan></text><text x="9" y="238.40190173666718" text-anchor="start"><tspan alignment-baseline="middle" x="9" style="font-family: Arial, sans-serif; font-size: 10px; fill: black; font-weight: bold;">South America</tspan></text><text x="9" y="349.3718654948599" text-anchor="start"><tspan alignment-baseline="middle" x="9" style="font-family: Arial, sans-serif; font-size: 10px; fill: black; font-weight: bold;">Europe</tspan></text><text x="9" y="474.18682629149805" text-anchor="start"><tspan alignment-baseline="middle" x="9" style="font-family: Arial, sans-serif; font-size: 10px; fill: black; font-weight: bold;">Africa</tspan></text><text x="482" y="838.8403463459861" text-anchor="start"><tspan alignment-baseline="middle" x="482" style="font-family: Arial, sans-serif; font-size: 10px; fill: black; font-weight: bold;">China</tspan></text><text x="9" y="696.9103501985724" text-anchor="start"><tspan alignment-baseline="middle" x="9" style="font-family: Arial, sans-serif; font-size: 10px; fill: black; font-weight: bold;">Asia</tspan></text></g><g><text x="948.5" y="-4" text-anchor="middle" style="font-family: Arial, sans-serif; font-size: 12px; fill: rgb(123, 123, 123); font-weight: bold;">City</text><text x="475.5" y="38.5" text-anchor="middle" style="font-family: Arial, sans-serif; font-size: 12px; fill: rgb(123, 123, 123); font-weight: bold;">Country</text><text x="2.5" y="108.5" text-anchor="middle" style="font-family: Arial, sans-serif; font-size: 12px; fill: rgb(123, 123, 123); font-weight: bold;">Continent</text></g></g></svg>