<?xml version="1.0" encoding="utf-8"?>
<!-- Generator: Adobe Illustrator 25.4.1, SVG Export Plug-In . SVG Version: 6.00 Build 0)  -->
<svg version="1.1" id="Layer_1" xmlns="http://www.w3.org/2000/svg" xmlns:xlink="http://www.w3.org/1999/xlink" x="0px" y="0px"
	 viewBox="0 0 1240.1 725" style="enable-background:new 0 0 1240.1 725;" xml:space="preserve">
<style type="text/css">
	.st0{fill:#B3B3B3;}
	.st1{fill:none;}
	.st2{font-family:'MyriadPro-Regular';}
	.st3{font-size:26px;}
	.st4{fill:#0DF9FF;enable-background:new    ;}
	.st5{font-size:18px;}
</style>
<image style="overflow:visible;enable-background:new    ;" width="1201" height="714" xlink:href="E9970120.jpg"  transform="matrix(0.9988 0 0 0.9988 23.405 0)">
</image>
<rect x="427" y="61" class="st0" width="472" height="53"/>
<rect x="426.6" y="71.4" class="st1" width="479.4" height="32.7"/>
<text transform="matrix(1 0 0 1 455.4131 89.8857)" class="st2 st3">Densidad de población a nivel mundial</text>
<path class="st4" d="M1160.4,275.5c-51.1,0-94.2,23.1-107.4,54.7l-41.5-18.1l38.6,27.2c-0.2,0.9-0.4,1.7-0.5,2.6L890.1,367l159-19
	c0,0.8-0.1,1.7-0.1,2.5c0,41.4,49.9,75,111.5,75s111.5-33.6,111.5-75S1222,275.5,1160.4,275.5z"/>
<rect x="1081" y="308.5" class="st1" width="162" height="117"/>
<text transform="matrix(1 0 0 1 1085.4111 321.2803)"><tspan x="0" y="0" class="st2 st5">China e India son los </tspan><tspan x="19.7" y="21.6" class="st2 st5">paices con mas </tspan><tspan x="30.4" y="43.2" class="st2 st5">densidad de </tspan><tspan x="12.7" y="64.8" class="st2 st5">poblacion a nivel </tspan><tspan x="43.6" y="86.4" class="st2 st5">mundial.</tspan></text>
</svg>
